# xmcd
# 
# Track frame offsets:
#     182
#     1632
#     12622
#     23282
#     34632
#     46197
#     57367
#     69737
#     80250
#     92142
#     102895
#     112790
#     124705
#     135650
#     147505
#     158932
#     170597
#     179282
#     190827
#     200617
#     213582
#     224642
#     235570
#     244785
#     254912
#     265782
#     278172
#     289432
#     301447
#     312675
#     324507
#     334225
# 
# Disc length: 4607
# 
# Revision: 1
# Processed by: cddbd v1.5.2PL0 Copyright (c) Steve Scherf et al.
# Submitted via: fre:ac v1.0.17
# 
DISCID=da11fd20
DTITLE=Various Artist - Welcome To My World - Disc 03
DYEAR=0
DGENRE=Country
TTITLE0=Jim Reeves - Spoken Intro
TTITLE1=Jim Reeves - I'm Hurtin' Inside
TTITLE2=Jim Reeves - If You Were Mine
TTITLE3=Jim Reeves - That's A Sad Affair
TTITLE4=Jim Reeves - Yonder Comes A Sucker
TTITLE5=Jim Reeves - Jimbo Jenkins
TTITLE6=Jim Reeves - I've Lived A Lot In My Time
TTITLE7=Jim Reeves - Ichabod Crane
TTITLE8=Jim Reeves - My Lips Are Sealed
TTITLE9=Jim Reeves - Your Old Love Letters
TTITLE10=Jim Reeves - Waltzing On Top Of The World
TTITLE11=Jim Reeves - Beyond A Shadow Of A Doubt
TTITLE12=Jim Reeves - Love Me A Little Bit More
TTITLE13=Jim Reeves - According To My Heart
TTITLE14=Jim Reeves - Each Time You Leave
TTITLE15=Jim Reeves - Highway To Nowhere
TTITLE16=Jim Reeves - Breeze (Blow My Baby Back To Me)
TTITLE17=Jim Reeves - Roly Poly
TTITLE18=Jim Reeves - Tweedle O'Twill
TTITLE19=Jim Reeves - Have I Told You Lately That I Love You
TTITLE20=Jim Reeves - Oklahoma Hills
TTITLE21=Jim Reeves - My Lips Are Sealed
TTITLE22=Jim Reeves - Pickin' A Chicken
TTITLE23=Jim Reeves - I've Got Just The Thing For You
TTITLE24=Jim Reeves and Carol Johnson - Mother Of A Honky Tonk Girl
TTITLE25=Jim Reeves - Am I Losing You?
TTITLE26=Jim Reeves - According To My Heart
TTITLE27=Jim Reeves - Don't Tell Me
TTITLE28=Jim Reeves - I Can't Fly
TTITLE29=Jim Reeves - Don't Ask Me Why
TTITLE30=Jim Reeves - Waiting For A Train
TTITLE31=Jim Reeves - Look Behind You
EXTD=
EXTT0=
EXTT1=
EXTT2=
EXTT3=
EXTT4=
EXTT5=
EXTT6=
EXTT7=
EXTT8=
EXTT9=
EXTT10=
EXTT11=
EXTT12=
EXTT13=
EXTT14=
EXTT15=
EXTT16=
EXTT17=
EXTT18=
EXTT19=
EXTT20=
EXTT21=
EXTT22=
EXTT23=
EXTT24=
EXTT25=
EXTT26=
EXTT27=
EXTT28=
EXTT29=
EXTT30=
EXTT31=
PLAYORDER=
